<svg width="105" height="107" viewBox="0 0 105 107" fill="none" xmlns="http://www.w3.org/2000/svg">
<path d="M81.5972 -6.27091C74.8335 0.476186 66.541 9.63131 63.9211 19.9719C62.6135 25.1332 62.7205 30.586 65.1374 36.1865C67.5554 41.7896 72.2949 47.5629 80.2917 53.3471L81.2439 54.0263C101.223 68.0468 119.62 67.5148 133.231 68.165C140.122 68.4943 145.867 69.1274 149.901 72.2064C153.955 75.3008 156.205 80.7992 156.319 90.656L156.025 90.6479L155.73 90.6411C155.617 80.8336 153.374 75.5585 149.539 72.631C145.683 69.6883 140.142 69.0488 133.222 68.7182C119.641 68.0693 101.055 68.6069 80.9031 54.4657L79.9428 53.7809C71.8833 47.9513 67.0611 42.1009 64.5919 36.3796C62.1215 30.6552 62.0154 25.0812 63.347 19.8254C66.0055 9.33222 74.4 0.086967 81.1609 -6.65731L81.5972 -6.27091ZM105.952 -61.2767C99.1879 -54.5296 90.8955 -45.3745 88.2756 -35.0339C87.5827 -32.2989 87.2868 -29.482 87.5216 -26.6046C90.4113 -36.7368 98.5271 -45.6568 105.1 -52.2131L105.536 -51.8267C98.7722 -45.0796 90.4797 -35.9245 87.8598 -25.5839C87.8083 -25.3805 87.759 -25.1767 87.7119 -24.9725C87.8465 -24.084 88.0344 -23.1904 88.2772 -22.2919C91.959 -30.4751 98.5853 -37.6712 104.119 -43.1909L104.554 -42.804C98.8674 -37.1314 92.1009 -29.7564 88.5328 -21.406C88.7764 -20.6215 89.0647 -19.834 89.3976 -19.0431C93.131 -25.0798 98.1261 -30.4219 102.453 -34.7383L102.889 -34.3514C98.4701 -29.9438 93.3998 -24.5082 89.6842 -18.3861C89.955 -17.7873 90.2525 -17.1865 90.5779 -16.584C93.5982 -20.4931 96.9511 -24.0142 99.9777 -27.0334L100.413 -26.6465C97.3277 -23.5687 93.9251 -19.9893 90.8871 -16.0255C91.087 -15.6735 91.2963 -15.321 91.5156 -14.968C93.234 -16.8694 94.96 -18.6435 96.5917 -20.2712L97.0281 -19.8848C95.3559 -18.2168 93.5895 -16.402 91.8393 -14.4581C91.8757 -14.4019 91.9128 -14.3459 91.9497 -14.2896C92.0564 -14.3964 92.1615 -14.5037 92.2674 -14.6093L92.7037 -14.2229C92.5625 -14.0821 92.4217 -13.9391 92.2793 -13.7961C95.0067 -9.79279 99.0199 -5.72829 104.646 -1.65876L105.599 -0.979988C125.578 13.0405 143.975 12.5089 157.585 13.1592C164.477 13.4885 170.222 14.1216 174.256 17.2006C178.31 20.295 180.56 25.7932 180.674 35.6502L180.379 35.6421L180.085 35.6353C179.972 25.8279 177.729 20.5522 173.894 17.6247C170.038 14.682 164.496 14.0429 157.577 13.7123C143.995 13.0635 125.41 13.6005 105.258 -0.540576L104.297 -1.22496C98.684 -5.28513 94.6413 -9.35551 91.8702 -13.3854C90.8513 -12.3568 89.8037 -11.278 88.754 -10.1499C88.8565 -9.89003 88.9628 -9.6294 89.0752 -9.36888C91.4933 -3.76575 96.2329 2.00762 104.23 7.79172L105.183 8.47049C125.161 22.4909 143.558 21.9594 157.169 22.6097C164.06 22.9389 169.805 23.5721 173.839 26.651C177.893 29.7455 180.144 35.2433 180.258 45.1002L179.963 45.0926L179.669 45.0853C179.556 35.278 177.313 30.0027 173.477 27.0752C169.622 24.1325 164.08 23.4934 157.16 23.1628C143.579 22.514 124.993 23.051 104.842 8.9099L103.881 8.22551C95.8212 2.396 90.9998 -3.4549 88.5306 -9.17625C88.4584 -9.34356 88.3879 -9.511 88.3197 -9.67805C87.613 -8.91015 86.9055 -8.12135 86.2055 -7.31188C86.4722 -5.02328 87.0795 -2.69794 88.0942 -0.346655C90.5122 5.25647 95.2519 11.0299 103.249 16.8139L104.202 17.4927C124.18 31.5132 142.577 30.9817 156.188 31.6319C163.079 31.9612 168.824 32.5943 172.858 35.6733C176.912 38.7677 179.164 44.266 179.277 54.1232L178.982 54.1156L178.688 54.1088C178.575 44.3011 176.332 39.0249 172.496 36.0974C168.64 33.1547 163.099 32.5156 156.179 32.185C142.598 31.5362 124.012 32.0733 103.861 17.9321L102.9 17.2477C94.8401 11.4181 90.0188 5.5674 87.5495 -0.15402C86.595 -2.36588 85.9942 -4.55525 85.6922 -6.71246C85.5957 -6.59888 85.4994 -6.48488 85.4032 -6.37054C85.1428 -5.98883 84.8884 -5.60312 84.6374 -5.21542C84.0232 -0.92502 84.459 3.54148 86.4288 8.10596C88.8468 13.7091 93.5863 19.4824 101.583 25.2666L102.536 25.9453C122.515 39.9658 140.912 39.4343 154.522 40.0845C161.414 40.4138 167.159 41.0469 171.193 44.1259C175.247 47.2204 177.497 52.7193 177.611 62.5763L177.316 62.5674L177.022 62.5606C176.909 52.7532 174.666 47.4776 170.831 44.55C166.975 41.6073 161.433 40.9683 154.514 40.6377C140.932 39.9888 122.347 40.5258 102.195 26.3847L101.234 25.7004C93.1746 19.8708 88.3534 14.02 85.8841 8.2986C84.0635 4.07972 83.5269 -0.057212 83.9037 -4.04547C83.443 -2.84977 83.0485 -1.63589 82.7365 -0.404507C81.4289 4.75676 81.5364 10.2103 83.9533 15.8108C86.3714 21.414 91.1109 27.1873 99.1077 32.9714L100.061 33.6502C120.039 47.6706 138.436 47.1391 152.047 47.7894C158.939 48.1186 164.683 48.7518 168.717 51.8308C172.771 54.9252 175.022 60.4231 175.136 70.2799L174.841 70.2723L174.547 70.265C174.434 60.4574 172.19 55.1815 168.355 52.254C164.499 49.3115 158.958 48.6731 152.038 48.3425C138.457 47.6937 119.871 48.2306 99.7199 34.0896L98.7587 33.4052C90.6991 27.5756 85.8774 21.7241 83.4081 16.0026C80.938 10.2784 80.8322 4.70504 82.1638 -0.550702C82.234 -0.828014 82.3081 -1.10451 82.3862 -1.38005C81.0805 1.10677 80.0273 3.69275 79.352 6.35804C78.0444 11.5192 78.1514 16.9721 80.5682 22.5725C82.9863 28.1757 87.7258 33.949 95.7226 39.7332L96.6747 40.4124C116.654 54.4329 135.051 53.9008 148.662 54.5511C155.553 54.8804 161.298 55.5135 165.332 58.5925C169.386 61.6869 171.637 67.1859 171.751 77.0429L171.456 77.0348L171.162 77.028C171.049 67.2205 168.806 61.9442 164.97 59.0166C161.115 56.0739 155.573 55.4349 148.653 55.1042C135.072 54.4554 116.485 54.993 96.3339 40.8518L95.3737 40.1669C87.3141 34.3374 82.492 28.487 80.0227 22.7656C77.5524 17.0413 77.4463 11.4673 78.7778 6.21148C79.5262 3.2578 80.728 0.402459 82.221 -2.32549C79.0147 2.06631 76.3254 6.89777 75.0276 12.02C73.7201 17.1812 73.827 22.634 76.2439 28.2345C78.662 33.8377 83.4014 39.6109 91.3982 45.3951L92.3504 46.0743C112.329 60.0948 130.727 59.5628 144.337 60.213C151.229 60.5423 156.974 61.1755 161.008 64.2544C165.062 67.3489 167.312 72.8472 167.426 82.704L167.132 82.6959L166.837 82.6891C166.724 72.8816 164.48 67.6065 160.645 64.679C156.789 61.7363 151.248 61.0968 144.329 60.7662C130.747 60.1173 112.161 60.655 92.0096 46.5137L91.0493 45.8289C82.9898 39.9993 78.1677 34.149 75.6984 28.4276C73.228 22.7033 73.1219 17.1293 74.4535 11.8734C76.0402 5.61061 79.6706 -0.207422 83.7771 -5.31466C83.9188 -5.65033 84.0652 -5.98453 84.2168 -6.31695C84.2183 -6.32509 84.2197 -6.33325 84.2211 -6.34139C78.2699 -0.044904 72.0378 7.8201 69.8315 16.5282C68.5239 21.6895 68.6314 27.143 71.0483 32.7436C73.4664 38.3467 78.2059 44.1201 86.2026 49.9042L87.1557 50.5829C107.134 64.6032 125.531 64.0719 139.142 64.7221C146.033 65.0514 151.778 65.6839 155.812 68.7627C159.866 71.8571 162.116 77.3559 162.23 87.2131L161.936 87.205L161.641 87.1982C161.528 77.3903 159.285 72.1143 155.45 69.1868C151.594 66.2442 146.053 65.6059 139.133 65.2753C125.552 64.6264 106.966 65.1632 86.8148 51.0224L85.8537 50.338C77.794 44.5083 72.9724 38.6568 70.5031 32.9354C68.033 27.2113 67.9265 21.6381 69.2579 16.3825C71.5798 7.21779 78.2775 -0.995329 84.4405 -7.42126C84.5026 -7.70003 84.5682 -7.97808 84.6384 -8.25511C84.8731 -9.18154 85.1523 -10.0985 85.4714 -11.0046C85.5407 -12.9406 85.8317 -14.8442 86.3038 -16.7077C86.3647 -16.9479 86.4298 -17.1872 86.4966 -17.426C86.3171 -20.011 86.5538 -22.5453 87.1136 -25.0121C86.6 -28.4982 86.8707 -31.9012 87.7014 -35.1804C90.36 -45.6737 98.7553 -54.9193 105.516 -61.6636L105.952 -61.2767ZM75.1613 -3.69326C68.3976 3.05381 60.1051 12.2091 57.4852 22.5496C56.1777 27.7107 56.2846 33.1637 58.7014 38.7641C61.1195 44.3672 65.859 50.1406 73.8558 55.9247L74.8088 56.6035C94.7876 70.6239 113.184 70.0924 126.795 70.7427C133.687 71.0719 139.431 71.7051 143.465 74.784C147.519 77.8785 149.77 83.3764 149.884 93.2332L149.589 93.2255L149.295 93.2187C149.181 83.4109 146.938 78.1348 143.103 75.2073C139.247 72.2648 133.706 71.6264 126.786 71.2958C113.205 70.6469 94.6194 71.1839 74.468 57.0429L73.5069 56.3585C65.4474 50.529 60.6261 44.6781 58.1568 38.9567C55.6865 33.2324 55.5803 27.6584 56.9119 22.4026C59.5705 11.9094 67.965 2.66414 74.7258 -4.08012L75.1613 -3.69326ZM68.3773 -1.73848C61.6136 5.00855 53.3207 14.1631 50.7007 24.5036C49.3931 29.6648 49.5006 35.1183 51.9175 40.7189C54.3356 46.322 59.0751 52.0954 67.0718 57.8795L68.024 58.5587C88.0026 72.5791 106.399 72.0477 120.01 72.6979C126.902 73.0272 132.647 73.6591 136.681 76.738C140.735 79.8324 142.986 85.3312 143.099 95.1884L142.805 95.1803L142.511 95.1735C142.397 85.3657 140.154 80.0901 136.318 77.1626C132.462 74.2202 126.922 73.5812 120.002 73.2506C106.421 72.6017 87.8346 73.1392 67.6832 58.9981L66.7229 58.3133C58.6632 52.4836 53.8407 46.6326 51.3715 40.9112C48.9013 35.187 48.7956 29.6135 50.1271 24.3578C52.7856 13.8647 61.1802 4.6194 67.941 -2.12487L68.3773 -1.73848ZM61.3872 -0.170803C54.6236 6.57624 46.3319 15.7312 43.712 26.0716C42.4044 31.2328 42.5105 36.686 44.9274 42.2866C47.3455 47.8897 52.0851 53.6631 60.0817 59.4472L61.0348 60.1259C81.0135 74.1464 99.4102 73.6149 113.021 74.2651C119.913 74.5944 125.657 75.2275 129.691 78.3065C133.745 81.4009 135.997 86.8993 136.111 96.7565L135.816 96.7488L135.521 96.7407C135.408 86.9334 133.165 81.6581 129.329 78.7306C125.474 75.7879 119.932 75.1489 113.012 74.8183C99.4309 74.1694 80.8453 74.7064 60.6939 60.5654L59.7328 59.881C51.6734 54.0514 46.852 48.2006 44.3828 42.4792C41.9124 36.7549 41.8063 31.1809 43.1379 25.925C45.7965 15.4319 54.1909 6.18659 60.9518 -0.557656L61.3872 -0.170803ZM54.3011 1.20728C47.5374 7.95438 39.245 17.1095 36.6251 27.4501C35.3175 32.6113 35.4245 38.0642 37.8413 43.6646C40.2594 49.2679 44.9993 55.0419 52.9962 60.8261L53.9478 61.5045C73.9267 75.525 92.3246 74.9938 105.935 75.644C112.827 75.9733 118.571 76.6057 122.605 79.6846C126.659 82.779 128.91 88.2778 129.024 98.135L128.729 98.1269L128.435 98.1201C128.322 88.3124 126.079 83.0362 122.243 80.1087C118.388 77.166 112.846 76.5269 105.926 76.1963C92.3448 75.5475 73.7594 76.0846 53.6079 61.9434L52.6467 61.259C44.5872 55.4294 39.7659 49.5787 37.2967 43.8573C34.8263 38.133 34.7194 32.5594 36.0509 27.3036C38.7094 16.8105 47.1045 7.56595 53.8653 0.821715L54.3011 1.20728ZM47.1991 2.55411C40.4354 9.3012 32.1429 18.4564 29.523 28.797C28.2155 33.9581 28.3225 39.4111 30.7393 45.0115C33.1573 50.6147 37.8972 56.3887 45.8941 62.1729L46.8471 62.8517C66.8258 76.8719 85.2226 76.3406 98.8332 76.9909C105.725 77.3201 111.469 77.9526 115.503 81.0314C119.557 84.1259 121.809 89.6242 121.922 99.4814L121.627 99.4737L121.334 99.4665C121.221 89.6587 118.977 84.383 115.141 81.4555C111.286 78.5129 105.744 77.8738 98.8242 77.5432C85.2428 76.8944 66.6571 77.4313 46.5058 63.2903L45.5447 62.6059C37.4853 56.7763 32.6638 50.9255 30.1946 45.2041C27.7243 39.4798 27.6182 33.9058 28.9497 28.6499C31.6084 18.1569 40.0034 8.91226 46.7641 2.16809L47.1991 2.55411ZM40.1403 3.98722C33.3766 10.7343 25.0841 19.8895 22.4642 30.2301C21.1567 35.3912 21.2637 40.8442 23.6805 46.4446C26.0985 52.0478 30.8384 57.8218 38.8353 63.606L39.7878 64.284C59.7667 78.3045 78.1638 77.7737 91.7744 78.424C98.666 78.7532 104.41 79.3857 108.444 82.4645C112.498 85.559 114.75 91.0573 114.864 100.914L114.569 100.907L114.274 100.9C114.161 91.0922 111.918 85.8162 108.082 82.8886C104.227 79.946 98.6851 79.3069 91.7654 78.9763C78.184 78.3274 59.5984 78.8645 39.447 64.7234L38.4859 64.039C30.4264 58.2094 25.605 52.3586 23.1358 46.6372C20.6655 40.9129 20.5594 35.3389 21.8909 30.0831C24.5496 19.59 32.9446 10.3454 39.7053 3.60119L40.1403 3.98722ZM33.1708 5.5936C26.4071 12.3407 18.1146 21.4959 15.4947 31.8365C14.1872 36.9976 14.2942 42.4506 16.711 48.051C19.129 53.6541 23.8687 59.4275 31.8653 65.2116L32.8184 65.8903C52.797 79.9107 71.1938 79.3793 84.8044 80.0295C91.6961 80.3588 97.4409 80.992 101.475 84.0709C105.529 87.1653 107.78 92.6637 107.894 102.521L107.599 102.513L107.305 102.506C107.192 92.6982 104.948 87.4226 101.113 84.495C97.2573 81.5523 91.7156 80.9133 84.7959 80.5827C71.2145 79.9338 52.6289 80.4708 32.4775 66.3298L31.5164 65.6454C23.457 59.8158 18.6356 53.965 16.1663 48.2436C13.696 42.5193 13.5899 36.9453 14.9215 31.6894C17.5801 21.1963 25.9746 11.951 32.7354 5.20675L33.1708 5.5936ZM26.3255 7.43309C19.5619 14.1801 11.269 23.3347 8.64894 33.6751C7.34133 38.8364 7.44879 44.2899 9.86572 49.8905C12.2838 55.4936 17.0232 61.2669 25.0201 67.0511L25.9722 67.7303C45.9509 81.7507 64.3477 81.2192 77.9583 81.8695C84.85 82.1987 90.5947 82.8319 94.6287 85.9108C98.6826 89.0053 100.934 94.503 101.047 104.36L100.753 104.352L100.459 104.345C100.346 94.5373 98.1018 89.2616 94.2663 86.3341C90.4107 83.3918 84.8699 82.7528 77.9506 82.4222C64.3693 81.7733 45.7829 82.3108 25.6314 68.1697L24.6711 67.4849C16.6115 61.6552 11.7889 55.8042 9.31969 50.0827C6.84952 44.3586 6.74382 38.7851 8.07532 33.5294C10.7338 23.0362 19.1284 13.791 25.8892 7.04669L26.3255 7.43309ZM19.6269 9.54557C12.8633 16.2926 4.57035 25.4471 1.95035 35.7876C0.642746 40.9489 0.7502 46.4024 3.16713 52.0029C5.58524 57.6061 10.3247 63.3794 18.3215 69.1635L19.2736 69.8428C39.2523 83.8631 57.6491 83.3317 71.2597 83.982C78.1512 84.3112 83.8957 84.9438 87.9296 88.0225C91.9836 91.1169 94.2352 96.6153 94.3489 106.472L94.0539 106.465L93.7602 106.458C93.647 96.6498 91.4032 91.3741 87.5678 88.4466C83.7121 85.5042 78.1713 84.8652 71.252 84.5346C57.6707 83.8858 39.0843 84.4232 18.9328 70.2822L17.9726 69.5973C9.91289 63.7677 5.09033 57.9167 2.6211 52.1952C0.150895 46.471 0.045236 40.8976 1.37673 35.6419C4.03526 25.1487 12.4298 15.9035 19.1906 9.15918L19.6269 9.54557ZM85.5637 -7.74284C85.4944 -7.60748 85.4267 -7.47146 85.359 -7.33552C85.4322 -7.43996 85.5045 -7.54503 85.5784 -7.64899C85.5751 -7.68205 85.5727 -7.71515 85.5695 -7.74819C85.5677 -7.7463 85.5655 -7.74473 85.5637 -7.74284ZM85.4762 -9.08389C85.4274 -8.91519 85.3805 -8.74601 85.3347 -8.57666C85.3854 -8.67217 85.4358 -8.76786 85.4872 -8.86306C85.4835 -8.93672 85.4792 -9.01032 85.4762 -9.08389ZM87.6742 -11.4353C87.2915 -10.8283 86.9228 -10.2137 86.5677 -9.59308C86.7372 -9.76338 86.905 -9.93341 87.0727 -10.1007L87.2709 -9.92386C87.4833 -10.1978 87.6968 -10.4701 87.9122 -10.7401C87.8289 -10.9721 87.75 -11.2039 87.6742 -11.4353ZM87.097 -13.4758C86.7169 -12.6224 86.3679 -11.7593 86.0581 -10.8858C86.0471 -10.5484 86.0432 -10.2101 86.0463 -9.87079C86.4911 -10.648 86.9607 -11.4132 87.447 -12.1683C87.3181 -12.6054 87.2001 -13.0409 87.097 -13.4758ZM91.4465 -14.0174C90.8538 -13.3515 90.2639 -12.6709 89.6809 -11.9765C90.3072 -12.6289 90.9287 -13.262 91.5386 -13.8766C91.5075 -13.9234 91.4772 -13.9706 91.4465 -14.0174ZM90.5112 -15.5318C89.6648 -14.4071 88.8511 -13.2514 88.0824 -12.069C88.1634 -11.8037 88.2502 -11.5383 88.3412 -11.2722C89.2512 -12.393 90.1825 -13.4793 91.1192 -14.5275C90.908 -14.8627 90.7052 -15.1973 90.5112 -15.5318ZM89.327 -17.7865C88.6677 -16.6651 88.0561 -15.5211 87.5028 -14.3571C87.6067 -13.8445 87.7281 -13.3303 87.8682 -12.8145C88.6094 -13.9317 89.389 -15.0237 90.1959 -16.0871C89.8822 -16.6546 89.5933 -17.2212 89.327 -17.7865ZM86.6765 -15.711C86.4712 -14.7843 86.3126 -13.8487 86.2057 -12.9048C86.4214 -13.4206 86.65 -13.9322 86.8889 -14.4403C86.806 -14.865 86.736 -15.2887 86.6765 -15.711ZM88.1925 -20.5798C87.7695 -19.5185 87.399 -18.4424 87.0909 -17.3522C87.1398 -16.6842 87.2168 -16.0129 87.3244 -15.3386C87.8502 -16.3904 88.4212 -17.4248 89.0299 -18.44C89.0025 -18.5024 88.9741 -18.5643 88.9472 -18.6267C88.6654 -19.2797 88.4142 -19.931 88.1925 -20.5798ZM87.4004 -23.4241C87.1584 -22.0136 87.0267 -20.5835 87.0253 -19.1363C87.2915 -19.9174 87.5888 -20.6902 87.9113 -21.4553C87.7122 -22.1142 87.5413 -22.7703 87.4004 -23.4241Z" fill="url(#paint0_radial_1_189)" fill-opacity="0.58"/>
<defs>
<radialGradient id="paint0_radial_1_189" cx="0" cy="0" r="1" gradientUnits="userSpaceOnUse" gradientTransform="translate(78.981 40.641) rotate(44.6553) scale(82.2368 83.1473)">
<stop stop-color="white"/>
<stop offset="1" stop-color="#1E1E1E" stop-opacity="0"/>
<stop offset="1" stop-color="#0E0E35" stop-opacity="0"/>
<stop offset="1" stop-color="white" stop-opacity="0"/>
</radialGradient>
</defs>
</svg>
